<?xml version='1.0' encoding='utf-8'?>
<svg xmlns:xlink="http://www.w3.org/1999/xlink" xmlns="http://www.w3.org/2000/svg" viewBox="0 0 841.89 1190.6"> <defs> <style>.cls-1{fill:none;}.cls-2{clip-path:url(#e);}.cls-3{fill:url(#l);}.cls-4{fill:url(#m);}.cls-5{fill:url(#n);}.cls-6{fill:url(#o);}.cls-7{fill:url(#p);}.cls-8{fill:url(#k);}.cls-9{fill:url(#j);}.cls-10{fill:url(#a);}.cls-11{fill:url(#b);}.cls-12{fill:url(#c);}.cls-13{fill:url(#d);}.cls-14{fill:url(#f);}.cls-15{fill:url(#g);}.cls-16{fill:url(#h);}.cls-17{fill:url(#i);}</style> <clipPath id="e"> <rect class="cls-1" width="841.89" height="1190.6"/> </clipPath> <linearGradient id="l" x1="568.5" x2="265.18" y1="1018.6" y2="148.43" gradientUnits="userSpaceOnUse"> <stop stop-color="#eb5c3b" offset="0"/> <stop stop-color="#d74a69" offset=".39"/> <stop stop-color="#20406c" offset="1"/> </linearGradient> <linearGradient id="m" x1="405.09" x2="405.09" y1="1190.6" y2="780.13" gradientUnits="userSpaceOnUse"> <stop stop-color="#f9ea49" offset="0"/> <stop stop-color="#e84628" offset=".95"/> </linearGradient> <radialGradient id="n" cx="388.49" cy="971.08" r="495.4" gradientUnits="userSpaceOnUse"> <stop stop-color="#e94f2a" offset=".05"/> <stop stop-color="#cd1962" offset=".49"/> </radialGradient> <radialGradient id="o" cx="380.44" cy="1033.7" r="334.97" gradientUnits="userSpaceOnUse"> <stop stop-color="#e8580d" offset="0"/> <stop stop-color="#821d58" offset="1"/> </radialGradient> <radialGradient id="p" cx="375.31" cy="1061" r="324.37" fx="354.87" fy="957.49" gradientUnits="userSpaceOnUse"> <stop stop-color="#f15a24" offset="0"/> <stop stop-color="#2f2e61" offset="1"/> </radialGradient> <linearGradient id="k" x1="740.54" x2="679.8" y1="193.82" y2="129.94" gradientUnits="userSpaceOnUse"> <stop stop-color="#e53362" offset="0"/> <stop stop-color="#eb5b2b" offset="1"/> </linearGradient> <linearGradient id="j" x1="424.66" x2="424.66" y1="11.99" y2="868.67" gradientUnits="userSpaceOnUse"> <stop stop-color="#e53362" offset="0"/> <stop stop-color="#eb5b2b" offset=".5"/> <stop stop-color="#f2e68c" offset="1"/> </linearGradient> <linearGradient id="a" x1="-4870.7" x2="-4717.9" y1="1102.8" y2="1102.8" gradientTransform="matrix(-1 0 0 1 -4623.8 0)" gradientUnits="userSpaceOnUse"> <stop stop-color="#397140" offset="0"/> <stop stop-color="#39332c" offset="1"/> </linearGradient> <linearGradient id="b" x1="-4897.5" x2="-4848.8" y1="1092.9" y2="1093.1" gradientTransform="matrix(-1 0 0 1 -4623.8 0)" gradientUnits="userSpaceOnUse"> <stop stop-color="#5a783e" offset="0"/> <stop stop-color="#2b302c" offset="1"/> </linearGradient> <linearGradient id="c" x1="-4880.9" x2="-4858.8" y1="1153.3" y2="1142.8" gradientTransform="matrix(-1 0 0 1 -4623.8 0)" gradientUnits="userSpaceOnUse"> <stop stop-color="#6d6438" offset="0"/> <stop stop-color="#534629" offset="1"/> </linearGradient> <linearGradient id="d" x1="102.6" x2="133.26" y1="1208.7" y2="1108" gradientUnits="userSpaceOnUse"> <stop stop-opacity="0" offset="0"/> <stop offset="1"/> </linearGradient> <linearGradient id="f" x1="615.04" x2="767.87" y1="1102.8" y2="1102.8" xlink:href="#a"/> <linearGradient id="g" x1="588.32" x2="636.98" y1="1092.9" y2="1093.1" xlink:href="#b"/> <linearGradient id="h" x1="604.91" x2="627.03" y1="1153.3" y2="1142.8" xlink:href="#c"/> <linearGradient id="i" x1="-4415.1" x2="-4386.4" y1="1206.4" y2="1112.1" gradientTransform="matrix(-1 0 0 1 -3665.4 0)" xlink:href="#d"/> </defs> <g data-name="Capa 2"> <g data-name="Capa 1"> <g class="cls-2"> <rect class="cls-3" width="841.89" height="1190.6"/> <path class="cls-4" d="m296.45 1190.6h217.27a219.47 219.47 0 0 0 110.94-190.85c0-121.27-98.31-219.57-219.57-219.57s-219.58 98.3-219.58 219.57a219.47 219.47 0 0 0 110.94 190.85z"/> <path class="cls-5" d="m0 1190.6h841.89v-247.06c-24.69 2.18-49.1 18.9-107.95 26.59-86.75 11.35-96.37-16.77-197.11-10.21-94.16 6.13-92.26 31.13-153.19 22.47-68.08-9.68-81.27-42.43-157.28-44.94-41.58-1.37-44.67 8.2-90.89 4.09-49.21-4.38-67.86-17.19-104.17-10.21a135 135 0 0 0-31.3 10.17z"/> <path class="cls-6" d="m0 1190.6h841.89v-171.38c-23.76-18.2-23.68-18.17-24.21-18.45-156.07-83.34-308.68 111.83-489.19 43.92-95.76-36-95.26-106.94-181.28-112.34-61.57-3.87-108 29.57-147.21 58.48z"/> <path class="cls-7" d="M0,1190.55H841.89V1026.1c-47.39,10.05-77.4,52.13-161.57,74.71-196.64,52.74-254.8-117.46-533.11-110.3C95.77,991.83,45.37,999,0,992.12Z"/> <path class="cls-8" d="m736.3 147.22a40.44 40.44 0 0 1-78.78 12.86 46.06 46.06 0 1 0 51.2-51.21 40.46 40.46 0 0 1 27.58 38.35z"/> <path class="cls-9" d="m308.06 273.06a6.64 6.64 0 1 1-6.63-6.64 6.63 6.63 0 0 1 6.63 6.64zm105.2 147.58a7.15 7.15 0 1 0 7.14 7.15 7.15 7.15 0 0 0-7.14-7.15zm-211.41 58.65a7.15 7.15 0 1 0 7.15 7.15 7.15 7.15 0 0 0-7.15-7.15zm383.53 203.82a7.15 7.15 0 1 0 7.15 7.14 7.15 7.15 0 0 0-7.15-7.14zm137.31-435a7.15 7.15 0 1 0 7.15 7.15 7.15 7.15 0 0 0-7.15-7.14zm-232.33-8a3.32 3.32 0 1 1-3.32-3.32 3.32 3.32 0 0 1 3.32 3.34zm51.94-193.83a3.32 3.32 0 1 1-3.3-3.28 3.32 3.32 0 0 1 3.3 3.28zm60.24 172a3.32 3.32 0 1 1-3.32-3.32 3.32 3.32 0 0 1 3.32 3.35zm-506.14 44.14a3.32 3.32 0 1 1-3.31-3.32 3.32 3.32 0 0 1 3.31 3.32zm49.54 441a3.32 3.32 0 1 1-3.32-3.32 3.32 3.32 0 0 1 3.32 3.34zm212.06-361.05a1.9 1.9 0 1 1-1.9-1.9 1.9 1.9 0 0 1 1.9 1.9zm-145.2-118.84a1.9 1.9 0 1 1-1.9-1.9 1.9 1.9 0 0 1 1.9 1.9zm143.26-30.64a1.9 1.9 0 1 1-1.9-1.9 1.9 1.9 0 0 1 1.9 1.9zm-17.5-103a1.9 1.9 0 1 1-1.9-1.9 1.9 1.9 0 0 1 1.9 1.9zm-58.37-68.1a1.9 1.9 0 1 1-1.9-1.9 1.91 1.91 0 0 1 1.9 1.9zm-45.8 66.21a1.9 1.9 0 1 1-1.9-1.9 1.9 1.9 0 0 1 1.9 1.9zm36.91 305.41a1.9 1.9 0 1 1-1.9-1.9 1.9 1.9 0 0 1 1.9 1.9zm-138 119.28a1.9 1.9 0 1 1-1.9-1.9 1.9 1.9 0 0 1 1.88 1.9zm-69.89 110.45a1.9 1.9 0 1 1-1.9-1.9 1.91 1.91 0 0 1 1.9 1.9zm320.09 90.46a1.9 1.9 0 1 1-1.9-1.9 1.9 1.9 0 0 1 1.9 1.9zm355.5-254a1.9 1.9 0 1 1-1.9-1.9 1.9 1.9 0 0 1 1.9 1.9zm-374.91 86.8a1.9 1.9 0 1 1-1.9-1.9 1.9 1.9 0 0 1 1.9 1.9zm37.79-272.31a1.9 1.9 0 1 1-1.9-1.9 1.9 1.9 0 0 1 1.9 1.9zm259.44-199.71a1.9 1.9 0 1 1-1.9-1.9 1.9 1.9 0 0 1 1.9 1.9zm-171 61.56a1.9 1.9 0 1 1-1.9-1.9 1.9 1.9 0 0 1 1.94 1.9zm-18.85 211.17a1.9 1.9 0 1 1-1.9-1.9 1.91 1.91 0 0 1 1.9 1.9zm-393.17-295.61a1.9 1.9 0 1 1-1.9-1.9 1.9 1.9 0 0 1 1.9 1.9zm475.2 256.9a1.9 1.9 0 1 1-1.9-1.9 1.9 1.9 0 0 1 1.9 1.9zm95.89 86.91a1.9 1.9 0 1 1-1.89-1.9 1.9 1.9 0 0 1 1.89 1.9zm75.2 274.34a1.9 1.9 0 1 1-1.9-1.9 1.9 1.9 0 0 1 1.9 1.9zm-488.3 11.56a1.9 1.9 0 1 1-1.9-1.9 1.91 1.91 0 0 1 1.9 1.9zm-82.29-340.74a1.9 1.9 0 1 1-1.9-1.9 1.9 1.9 0 0 1 1.9 1.9zm381.67 106.86a1.9 1.9 0 1 1-1.9-1.9 1.9 1.9 0 0 1 1.9 1.9zm-448.34 347.97a1.9 1.9 0 1 1-1.9-1.9 1.91 1.91 0 0 1 1.9 1.9zm404.93-247a1.9 1.9 0 1 1-1.9-1.9 1.9 1.9 0 0 1 1.9 1.9zm256-181.61a1.9 1.9 0 1 1-1.9-1.9 1.9 1.9 0 0 1 1.93 1.9zm-150.46 183.51a1.9 1.9 0 1 1-1.9-1.9 1.9 1.9 0 0 1 1.9 1.9zm170.59-503.92a1.9 1.9 0 1 1-1.9-1.9 1.9 1.9 0 0 1 1.9 1.9zm-143.78 764.77a1.9 1.9 0 1 1-1.9-1.9 1.9 1.9 0 0 1 1.9 1.9zm-286-174.78a1.9 1.9 0 1 1-1.9-1.9 1.9 1.9 0 0 1 1.85 1.9zm-245.01-447.46a4.09 4.09 0 1 1-4.09-4.09 4.09 4.09 0 0 1 4.09 4.09zm3.06 235.4a3.58 3.58 0 1 1-3.57-3.57 3.57 3.57 0 0 1 3.57 3.57zm693.05 329.62a3.58 3.58 0 1 1-3.58-3.57 3.58 3.58 0 0 1 3.58 3.57z"/> <polygon class="cls-10" points="246.98 1043.4 157.69 1038 94.15 1151.2 225.66 1167.7"/> <polygon class="cls-11" points="246.98 1043.4 296.04 1142.4 233.86 1119.9"/> <polygon class="cls-12" points="233.86 1119.9 296.04 1142.4 225.66 1167.7"/> <polygon class="cls-13" points="94.15 1151.2 0 1182.5 0 1190.6 178.58 1190.6 225.66 1167.7"/> <polygon class="cls-14" points="615.04 1043.4 704.33 1038 767.87 1151.2 636.36 1167.7"/> <polygon class="cls-15" points="615.04 1043.4 565.98 1142.4 628.16 1119.9"/> <polygon class="cls-16" points="628.16 1119.9 565.98 1142.4 636.36 1167.7"/> <polygon class="cls-17" points="767.75 1151 841.89 1175.6 841.89 1190.6 683.84 1190.6 636.23 1167.4"/> </g> </g> </g> </svg>